<svg width="114" height="30" fill="none" xmlns="http://www.w3.org/2000/svg"><path d="M13.39 1.47c-.96.053-1.667.16-2.12.32-.427.16-.72.466-.88.92-.16.453-.24 1.187-.24 2.2v20.33c0 .853.066 1.48.2 1.88.133.374.36.627.68.76.347.134.894.2 1.64.2h1.961c1.814 0 3.375-.813 4.682-2.44 1.334-1.628 2.2-3.788 2.601-6.483h.92c-.08.907-.12 2.081-.12 3.522 0 2.56.094 4.668.28 6.322-1.814-.08-4.868-.12-9.163-.12-5.816 0-10.164.04-13.045.12v-.8c.88-.054 1.52-.16 1.92-.32.427-.16.708-.467.84-.92.161-.454.241-1.188.241-2.202V4.911c0-1.014-.08-1.748-.24-2.201-.133-.454-.414-.76-.84-.92-.4-.16-1.04-.267-1.921-.32v-.8c1.36.08 3.468.12 6.322.12 2.721 0 4.816-.04 6.283-.12v.8zM39.375.108c2.828 0 5.295.573 7.403 1.72 2.134 1.148 3.788 2.815 4.962 5.002 1.173 2.161 1.76 4.749 1.76 7.763 0 2.935-.6 5.536-1.8 7.804-1.2 2.267-2.882 4.028-5.042 5.282-2.134 1.253-4.575 1.88-7.323 1.88-2.828 0-5.309-.573-7.443-1.72-2.107-1.148-3.748-2.802-4.922-4.962-1.174-2.188-1.76-4.789-1.76-7.803 0-2.935.6-5.536 1.8-7.803 1.2-2.268 2.868-4.029 5.002-5.282C34.171.736 36.626.109 39.374.109zm-.16.72c-1.468 0-2.761.6-3.882 1.8-1.12 1.175-1.987 2.829-2.6 4.963-.588 2.134-.881 4.575-.881 7.323 0 2.774.333 5.215 1 7.322.694 2.108 1.614 3.735 2.761 4.882 1.174 1.147 2.468 1.72 3.882 1.72 1.467 0 2.76-.586 3.881-1.76 1.12-1.2 1.974-2.867 2.561-5.002.614-2.134.92-4.575.92-7.323 0-2.774-.346-5.215-1.04-7.322-.667-2.108-1.587-3.735-2.76-4.882C41.907 1.403 40.627.83 39.213.83zm31.81-.72c1.655 0 3.042.227 4.162.68 1.147.454 2.268 1.094 3.362 1.92.32.241.587.361.8.361.267 0 .48-.187.64-.56.16-.4.28-1.014.36-1.84h.92c-.106 1.813-.16 5.041-.16 9.683h-.92c-.213-1.814-.533-3.281-.96-4.402-.4-1.12-1.08-2.067-2.04-2.84-.641-.615-1.428-1.095-2.362-1.442a8.211 8.211 0 00-2.88-.52c-1.868 0-3.429.64-4.683 1.921-1.227 1.254-2.134 2.921-2.72 5.002-.588 2.08-.881 4.362-.881 6.843 0 9.23 2.56 13.845 7.683 13.845 1.174 0 2.12-.267 2.84-.8.348-.24.588-.52.721-.84.16-.32.24-.734.24-1.241v-3.922c0-1.254-.106-2.16-.32-2.72-.213-.588-.6-.988-1.16-1.201-.534-.214-1.388-.347-2.561-.4v-.8c1.654.08 3.935.12 6.842.12 2.375 0 4.162-.04 5.362-.12v.8c-.533.053-.92.16-1.16.32-.24.16-.413.467-.52.92-.08.454-.12 1.187-.12 2.201V29h-.8a4.314 4.314 0 00-.36-1.56c-.187-.48-.454-.72-.801-.72-.454 0-1.174.28-2.16.84-2.322 1.333-4.51 2-6.563 2-4.615 0-8.15-1.254-10.604-3.761-2.455-2.534-3.682-6.083-3.682-10.644 0-2.988.614-5.616 1.84-7.883 1.255-2.268 2.975-4.029 5.163-5.282C65.729.736 68.224.109 71.025.109zm28.706 0c2.828 0 5.295.573 7.403 1.72 2.134 1.148 3.788 2.815 4.962 5.002 1.173 2.161 1.76 4.749 1.76 7.763 0 2.935-.6 5.536-1.8 7.804-1.201 2.267-2.882 4.028-5.042 5.282-2.135 1.253-4.575 1.88-7.323 1.88-2.828 0-5.309-.573-7.443-1.72-2.108-1.148-3.748-2.802-4.922-4.962-1.174-2.188-1.76-4.789-1.76-7.803 0-2.935.6-5.536 1.8-7.803 1.2-2.268 2.868-4.029 5.002-5.282C94.527.736 96.982.109 99.73.109zm-.16.72c-1.467 0-2.761.6-3.882 1.8-1.12 1.175-1.987 2.829-2.6 4.963-.588 2.134-.881 4.575-.881 7.323 0 2.774.333 5.215 1 7.322.694 2.108 1.614 3.735 2.761 4.882 1.174 1.147 2.468 1.72 3.882 1.72 1.467 0 2.761-.586 3.881-1.76 1.121-1.2 1.974-2.867 2.561-5.002.614-2.134.921-4.575.921-7.323 0-2.774-.347-5.215-1.041-7.322-.667-2.108-1.587-3.735-2.761-4.882-1.147-1.147-2.427-1.72-3.841-1.72z" fill="#000"/></svg>