<svg width="114" height="30" viewBox="0 0 114 30" fill="none" xmlns="http://www.w3.org/2000/svg">
<path d="M13.3907 1.46941C12.4303 1.52277 11.7234 1.62948 11.2699 1.78954C10.8431 1.9496 10.5496 2.25638 10.3895 2.70989C10.2295 3.1634 10.1495 3.89701 10.1495 4.91074V25.2386C10.1495 26.0922 10.2161 26.7191 10.3495 27.1193C10.4829 27.4928 10.7097 27.7462 11.0298 27.8796C11.3766 28.013 11.9235 28.0796 12.6704 28.0796H14.6312C16.4452 28.0796 18.0058 27.266 19.313 25.6387C20.6468 24.0114 21.5138 21.8506 21.914 19.1562H22.8343C22.7543 20.0632 22.7143 21.237 22.7143 22.6776C22.7143 25.2386 22.8077 27.346 22.9944 29C21.1804 28.92 18.1259 28.88 13.8309 28.88C8.0153 28.88 3.66696 28.92 0.78585 29V28.1997C1.66619 28.1463 2.30644 28.0396 2.70659 27.8796C3.13342 27.7195 3.41353 27.4127 3.54691 26.9592C3.70697 26.5057 3.787 25.7721 3.787 24.7584V4.91074C3.787 3.89701 3.70697 3.1634 3.54691 2.70989C3.41353 2.25638 3.13342 1.9496 2.70659 1.78954C2.30644 1.62948 1.66619 1.52277 0.78585 1.46941V0.669107C2.14637 0.749137 4.25385 0.789152 7.10828 0.789152C9.82933 0.789152 11.9235 0.749137 13.3907 0.669107V1.46941ZM39.3738 0.10889C42.2016 0.10889 44.6692 0.682444 46.7767 1.82955C48.9108 2.97666 50.5648 4.64397 51.7386 6.83148C52.9124 8.99231 53.4992 11.58 53.4992 14.5945C53.4992 17.5289 52.899 20.1299 51.6986 22.3975C50.4981 24.665 48.8174 26.4257 46.6566 27.6795C44.5225 28.9333 42.0815 29.5602 39.3338 29.5602C36.506 29.5602 34.0251 28.9867 31.8909 27.8396C29.7835 26.6924 28.1428 25.0385 26.969 22.8776C25.7953 20.6901 25.2084 18.0891 25.2084 15.0746C25.2084 12.1402 25.8086 9.53918 27.0091 7.27164C28.2095 5.00411 29.8768 3.24343 32.011 1.98961C34.1718 0.735798 36.6261 0.10889 39.3738 0.10889ZM39.2137 0.829167C37.7465 0.829167 36.4527 1.4294 35.3323 2.62986C34.2118 3.80365 33.3448 5.45761 32.7313 7.59177C32.1444 9.72592 31.8509 12.1669 31.8509 14.9146C31.8509 17.689 32.1844 20.1299 32.8513 22.2374C33.5449 24.3449 34.4653 25.9722 35.6124 27.1193C36.7861 28.2664 38.08 28.8399 39.4939 28.8399C40.9611 28.8399 42.2549 28.253 43.3753 27.0793C44.4958 25.8788 45.3494 24.2115 45.9363 22.0773C46.5499 19.9432 46.8567 17.5022 46.8567 14.7545C46.8567 11.9801 46.5099 9.53918 45.8163 7.43171C45.1494 5.32423 44.229 3.69694 43.0552 2.54983C41.9081 1.40272 40.6276 0.829167 39.2137 0.829167ZM71.0247 0.10889C72.6787 0.10889 74.0659 0.335644 75.1863 0.789152C76.3334 1.24266 77.4539 1.88291 78.5476 2.70989C78.8677 2.94998 79.1345 3.07003 79.3479 3.07003C79.6147 3.07003 79.8281 2.88329 79.9882 2.50981C80.1482 2.10966 80.2683 1.49609 80.3483 0.669107H81.2687C81.162 2.48314 81.1086 5.71104 81.1086 10.3528H80.1883C79.9748 8.5388 79.6547 7.07157 79.2279 5.95114C78.8277 4.83071 78.1475 3.88368 77.1871 3.11005C76.5469 2.49648 75.7599 2.01629 74.8262 1.66949C73.8925 1.32269 72.9321 1.14929 71.9451 1.14929C70.0777 1.14929 68.5171 1.78954 67.2633 3.07003C66.0361 4.32385 65.1291 5.99115 64.5422 8.07195C63.9553 10.1528 63.6619 12.4336 63.6619 14.9146C63.6619 24.1448 66.2229 28.7599 71.3449 28.7599C72.5186 28.7599 73.4657 28.4931 74.1859 27.9596C74.5327 27.7195 74.7728 27.4394 74.9062 27.1193C75.0663 26.7992 75.1463 26.3857 75.1463 25.8788V21.9573C75.1463 20.7035 75.0396 19.7965 74.8262 19.2362C74.6128 18.6494 74.226 18.2492 73.6657 18.0358C73.1322 17.8224 72.2785 17.689 71.1048 17.6356V16.8353C72.7587 16.9154 75.0396 16.9554 77.9474 16.9554C80.3216 16.9554 82.109 16.9154 83.3095 16.8353V17.6356C82.7759 17.689 82.3891 17.7957 82.149 17.9558C81.9089 18.1158 81.7355 18.4226 81.6288 18.8761C81.5488 19.3296 81.5088 20.0632 81.5088 21.077V29H80.7085C80.6818 28.4398 80.5617 27.9196 80.3483 27.4394C80.1616 26.9592 79.8948 26.7191 79.548 26.7191C79.0945 26.7191 78.3742 26.9992 77.3872 27.5594C75.0663 28.8933 72.8788 29.5602 70.8247 29.5602C66.2095 29.5602 62.6749 28.3064 60.2206 25.7988C57.7663 23.2645 56.5392 19.7164 56.5392 15.1547C56.5392 12.1669 57.1527 9.53918 58.3799 7.27164C59.6337 5.00411 61.3543 3.24343 63.5419 1.98961C65.7294 0.735798 68.2237 0.10889 71.0247 0.10889ZM99.7298 0.10889C102.558 0.10889 105.025 0.682444 107.133 1.82955C109.267 2.97666 110.921 4.64397 112.095 6.83148C113.268 8.99231 113.855 11.58 113.855 14.5945C113.855 17.5289 113.255 20.1299 112.055 22.3975C110.854 24.665 109.173 26.4257 107.013 27.6795C104.878 28.9333 102.438 29.5602 99.6898 29.5602C96.8621 29.5602 94.3811 28.9867 92.247 27.8396C90.1395 26.6924 88.4988 25.0385 87.3251 22.8776C86.1513 20.6901 85.5644 18.0891 85.5644 15.0746C85.5644 12.1402 86.1646 9.53918 87.3651 7.27164C88.5655 5.00411 90.2328 3.24343 92.367 1.98961C94.5278 0.735798 96.9821 0.10889 99.7298 0.10889ZM99.5698 0.829167C98.1025 0.829167 96.8087 1.4294 95.6883 2.62986C94.5678 3.80365 93.7008 5.45761 93.0873 7.59177C92.5004 9.72592 92.2069 12.1669 92.2069 14.9146C92.2069 17.689 92.5404 20.1299 93.2073 22.2374C93.9009 24.3449 94.8213 25.9722 95.9684 27.1193C97.1422 28.2664 98.436 28.8399 99.8499 28.8399C101.317 28.8399 102.611 28.253 103.731 27.0793C104.852 25.8788 105.705 24.2115 106.292 22.0773C106.906 19.9432 107.213 17.5022 107.213 14.7545C107.213 11.9801 106.866 9.53918 106.172 7.43171C105.505 5.32423 104.585 3.69694 103.411 2.54983C102.264 1.40272 100.984 0.829167 99.5698 0.829167Z" fill="black"/>
</svg>
